<svg xmlns="http://www.w3.org/2000/svg" width="42.868" height="48.706" viewBox="0 0 42.868 48.706">
  <path id="Icon_awesome-calendar-check" data-name="Icon awesome-calendar-check" d="M39.773,14.6H1.095A1.1,1.1,0,0,1,0,13.5V10.217A4.379,4.379,0,0,1,4.379,5.838H8.757V1.095A1.1,1.1,0,0,1,9.852,0H13.5A1.1,1.1,0,0,1,14.6,1.095V5.838H26.272V1.095A1.1,1.1,0,0,1,27.367,0h3.649A1.1,1.1,0,0,1,32.11,1.095V5.838h4.379a4.379,4.379,0,0,1,4.379,4.379V13.5A1.1,1.1,0,0,1,39.773,14.6ZM1.095,17.515H39.773a1.1,1.1,0,0,1,1.095,1.095V42.327a4.379,4.379,0,0,1-4.379,4.379H4.379A4.379,4.379,0,0,1,0,42.327V18.609A1.1,1.1,0,0,1,1.095,17.515Zm30.4,8.753-2.57-2.591a1.1,1.1,0,0,0-1.548-.006l-9.673,9.6-4.194-4.228a1.1,1.1,0,0,0-1.548-.006L9.375,31.6a1.1,1.1,0,0,0-.006,1.548l7.535,7.6a1.1,1.1,0,0,0,1.548.006L31.493,27.815a1.1,1.1,0,0,0,.006-1.548Z" transform="translate(1 1)" fill="none" stroke="#3e5521" stroke-width="2"/>
</svg>
