<svg xmlns="http://www.w3.org/2000/svg" width="36.552" height="45.751" viewBox="0 0 36.552 45.751">
  <g id="Icon_ionic-ios-notifications-outline" data-name="Icon ionic-ios-notifications-outline" transform="translate(-6.775 -3.93)">
    <path id="Path_2764" data-name="Path 2764" d="M23.92,28.336A1.481,1.481,0,0,0,22.467,29.5a2.866,2.866,0,0,1-.572,1.246,2.161,2.161,0,0,1-1.841.675,2.2,2.2,0,0,1-1.841-.675,2.866,2.866,0,0,1-.572-1.246,1.481,1.481,0,0,0-1.452-1.166h0a1.491,1.491,0,0,0-1.452,1.818A5.109,5.109,0,0,0,20.055,34.4a5.1,5.1,0,0,0,5.317-4.242,1.5,1.5,0,0,0-1.452-1.818Z" transform="translate(4.964 15.285)" fill="#3e5521"/>
    <path id="Path_2765" data-name="Path 2765" d="M42.869,37.812c-1.761-2.321-5.226-3.682-5.226-14.076,0-10.669-4.711-14.957-9.1-15.986-.412-.1-.709-.24-.709-.675V6.743A2.8,2.8,0,0,0,25.087,3.93h-.069a2.8,2.8,0,0,0-2.744,2.813v.332c0,.423-.3.572-.709.675-4.4,1.041-9.1,5.317-9.1,15.986C12.463,34.13,9,35.479,7.238,37.812a2.27,2.27,0,0,0,1.818,3.636H41.085A2.272,2.272,0,0,0,42.869,37.812Zm-4.46.663H11.743a.5.5,0,0,1-.377-.835,13.853,13.853,0,0,0,2.4-3.819A25.913,25.913,0,0,0,15.4,23.736c0-4.265.8-7.6,2.39-9.925a7.337,7.337,0,0,1,4.425-3.156,4.007,4.007,0,0,0,2.127-1.2A.9.9,0,0,1,25.7,9.431a4.143,4.143,0,0,0,2.15,1.224A7.337,7.337,0,0,1,32.28,13.81c1.589,2.321,2.39,5.66,2.39,9.925a25.913,25.913,0,0,0,1.635,10.086A14.011,14.011,0,0,0,38.763,37.7.473.473,0,0,1,38.409,38.475Z" transform="translate(0 0)" fill="#3e5521"/>
  </g>
</svg>
