<svg xmlns="http://www.w3.org/2000/svg" width="51.333" height="51.333" viewBox="0 0 51.333 51.333">
  <path id="Icon_awesome-headset" data-name="Icon awesome-headset" d="M18.5,20.042a3.084,3.084,0,0,0-3.083-3.083H13.875a6.166,6.166,0,0,0-6.167,6.167V27.75a6.166,6.166,0,0,0,6.167,6.167h1.542A3.084,3.084,0,0,0,18.5,30.833ZM35.458,33.917a6.166,6.166,0,0,0,6.167-6.167V23.125a6.166,6.166,0,0,0-6.167-6.167H33.917a3.084,3.084,0,0,0-3.083,3.083V30.833a3.084,3.084,0,0,0,3.083,3.083ZM24.667,0C10.905,0,.441,11.45,0,24.667v1.542A1.541,1.541,0,0,0,1.542,27.75H3.083a1.541,1.541,0,0,0,1.542-1.542V24.667a20.042,20.042,0,0,1,40.083,0H44.7c.008.234.012,15.968.012,15.968a4.074,4.074,0,0,1-4.074,4.074h-9.8a4.625,4.625,0,0,0-4.625-4.625H23.125a4.625,4.625,0,0,0,0,9.25h17.51a8.7,8.7,0,0,0,8.7-8.7V24.667C48.892,11.45,38.428,0,24.667,0Z" transform="translate(1 1)" fill="none" stroke="#3e5521" stroke-width="2"/>
</svg>
