<svg xmlns="http://www.w3.org/2000/svg" width="93.213" height="93.213" viewBox="0 0 93.213 93.213">
  <g id="Icon_ionic-ios-add-circle-outline" data-name="Icon ionic-ios-add-circle-outline" transform="translate(-3.375 -3.375)">
    <path id="Path_2776" data-name="Path 2776" d="M54.654,30.79H37.96V14.1a3.585,3.585,0,0,0-7.17,0V30.79H14.1a3.434,3.434,0,0,0-3.585,3.585A3.47,3.47,0,0,0,14.1,37.96H30.79V54.654a3.473,3.473,0,0,0,3.585,3.585,3.567,3.567,0,0,0,3.585-3.585V37.96H54.654a3.585,3.585,0,1,0,0-7.17Z" transform="translate(15.606 15.606)" fill="#fff"/>
    <path id="Path_2777" data-name="Path 2777" d="M49.982,9.649A40.339,40.339,0,0,1,78.506,78.506,40.339,40.339,0,0,1,21.457,21.457,40.066,40.066,0,0,1,49.982,9.649m0-6.274A46.607,46.607,0,1,0,96.588,49.982,46.6,46.6,0,0,0,49.982,3.375Z" fill="#fff"/>
  </g>
</svg>
